<?xml version="1.0" encoding="UTF-8" standalone="no"?>
<svg
   xmlns:dc="http://purl.org/dc/elements/1.1/"
   xmlns:cc="http://creativecommons.org/ns#"
   xmlns:rdf="http://www.w3.org/1999/02/22-rdf-syntax-ns#"
   xmlns:svg="http://www.w3.org/2000/svg"
   xmlns="http://www.w3.org/2000/svg"
   xmlns:sodipodi="http://sodipodi.sourceforge.net/DTD/sodipodi-0.dtd"
   xmlns:inkscape="http://www.inkscape.org/namespaces/inkscape"
   width="300"
   height="80"
   viewBox="0 0 79.374998 21.166667"
   version="1.1"
   id="svg1430"
   inkscape:version="1.0.2-2 (e86c870879, 2021-01-15)"
   sodipodi:docname="logo.svg">
  <defs
     id="defs1424" />
  <sodipodi:namedview
     id="base"
     pagecolor="#ffffff"
     bordercolor="#666666"
     borderopacity="1.0"
     inkscape:pageopacity="0.0"
     inkscape:pageshadow="2"
     inkscape:zoom="2.8"
     inkscape:cx="167.75495"
     inkscape:cy="33.890179"
     inkscape:document-units="mm"
     inkscape:current-layer="layer1"
     inkscape:document-rotation="0"
     showgrid="false"
     units="px"
     inkscape:window-width="1755"
     inkscape:window-height="997"
     inkscape:window-x="190"
     inkscape:window-y="190"
     inkscape:window-maximized="0" />
  <metadata
     id="metadata1427">
    <rdf:RDF>
      <cc:Work
         rdf:about="">
        <dc:format>image/svg+xml</dc:format>
        <dc:type
           rdf:resource="http://purl.org/dc/dcmitype/StillImage" />
        <dc:title></dc:title>
      </cc:Work>
    </rdf:RDF>
  </metadata>
  <g
     inkscape:label="Layer 1"
     inkscape:groupmode="layer"
     id="layer1">
    <g
       aria-label="Nicolaus Segler"
       transform="matrix(1.1060545,0,0,1.2583257,-2.4239153,1.0322757)"
       id="text1995"
       style="font-style:normal;font-weight:normal;font-size:10.5833px;line-height:1.25;font-family:sans-serif;white-space:pre;inline-size:82.1018;fill:#000000;fill-opacity:1;stroke:none;stroke-width:0.264583">
      <path
         d="M 5.6758159,2.4376721 Q 5.9858735,2.8562499 6.7506823,3.7347464 L 8.4043228,5.651936 9.9959519,7.4916111 q 0.051676,-0.9353405 0.051676,-2.4287846 0,-1.121375 -0.04651,-1.4986118 Q 9.9546109,3.1818104 9.6548885,2.923429 9.3603338,2.6650477 8.9159179,2.6650477 q -0.2067051,0 -0.2067051,-0.08785 0,-0.051676 0.041341,-0.072347 0.046509,-0.025838 0.6976296,-0.046509 0.6511206,-0.025838 1.0955366,-0.025838 l 0.69763,0.00517 h 0.113688 q 0.160196,0 0.160196,0.093017 0,0.082682 -0.139526,0.098185 -0.52193,0.056844 -0.754473,0.2738842 -0.227376,0.2118727 -0.273884,0.6149476 -0.04134,0.4030749 -0.04134,2.7130041 l -0.05168,2.7285069 q 0,0.2067051 -0.103352,0.2067051 -0.02584,0 -0.07235,-0.020671 Q 10.037293,9.1194135 9.6187151,8.6233214 9.2001374,8.1220616 8.5851898,7.4244319 7.9754098,6.7268023 7.6240112,6.2927217 6.8540348,5.3573812 6.6524974,5.1403409 5.9031915,4.3445264 5.7688332,4.1171508 5.6809835,3.962122 5.6086368,3.962122 q -0.056844,0 -0.056844,0.2015374 l 0.010335,0.8009822 q 0,1.5244499 0.082682,2.4339522 0.082682,0.9095023 0.1705317,1.0696988 0.093017,0.1550288 0.3152253,0.3152252 0.2273755,0.1601964 0.4805892,0.1601964 0.3410634,0 0.3410634,0.1240231 0,0.093017 -0.1912022,0.093017 L 4.275389,9.1555869 q -0.1756993,0 -0.1756993,-0.08785 0,-0.1033526 0.1705317,-0.1033526 0.6356181,0 0.8474908,-0.2790518 0.2118727,-0.2842195 0.2118727,-1.1988894 l -0.041341,-1.813837 q 0,-1.607132 -0.08785,-1.8913514 Q 5.1125446,3.491868 4.802487,3.0836254 4.497597,2.6702153 4.1048574,2.618539 3.9291581,2.5978685 3.9291581,2.5255218 q 0,-0.098185 0.2273755,-0.098185 z"
         style="font-style:normal;font-variant:normal;font-weight:normal;font-stretch:normal;font-family:'Bell MT';-inkscape-font-specification:'Bell MT';stroke-width:0.264583"
         id="path2017" />
      <path
         d="m 12.951834,2.1999613 q 0.19637,0 0.351399,0.1446935 0.155029,0.1446936 0.155029,0.3152253 0,0.2015374 -0.129191,0.3462309 -0.124023,0.1446936 -0.346231,0.1446936 -0.19637,0 -0.351398,-0.124023 -0.155029,-0.1291907 -0.155029,-0.346231 0,-0.2118727 0.12919,-0.346231 0.134359,-0.1343583 0.346231,-0.1343583 z m 0.573607,2.5269695 -0.0052,1.162716 0.01034,1.0852016 v 0.816485 l -0.0052,0.6201153 q 0,0.3720691 0.118855,0.4754216 0.124023,0.098185 0.366902,0.1085202 0.284219,0.015503 0.284219,0.1188554 0,0.082682 -0.10852,0.082682 -0.04134,0 -0.09302,-0.00517 -0.480589,-0.062012 -0.894,-0.062012 -0.661456,0 -0.914669,0.041341 -0.05168,0.010335 -0.103353,0.010335 -0.124023,0 -0.124023,-0.093017 0,-0.093017 0.289387,-0.1291907 0.289387,-0.036173 0.366902,-0.124023 0.08268,-0.093017 0.08268,-0.5167627 l 0.03101,-2.1393975 q 0,-0.8578261 -0.12919,-1.0128549 -0.129191,-0.1601964 -0.50126,-0.1705316 -0.124023,0 -0.124023,-0.082682 0,-0.046509 0.04134,-0.072347 0.04134,-0.025838 0.614947,-0.067179 0.573607,-0.041341 0.795815,-0.046509 z"
         style="font-style:normal;font-variant:normal;font-weight:normal;font-stretch:normal;font-family:'Bell MT';-inkscape-font-specification:'Bell MT';stroke-width:0.264583"
         id="path2019" />
      <path
         d="m 14.81218,7.0833686 q 0,-0.9456757 0.604613,-1.6536406 0.60978,-0.7079649 1.483109,-0.7079649 0.563271,0 1.080034,0.2790519 0.516762,0.2738842 0.516762,0.6872943 0,0.1601965 -0.09818,0.2842195 -0.09819,0.1188554 -0.227375,0.1188554 -0.289387,0 -0.444416,-0.4650864 -0.237711,-0.7131325 -0.831988,-0.7131325 -0.589109,0 -0.899167,0.5115951 -0.30489,0.5064274 -0.30489,1.3332477 0,0.9715138 0.428913,1.5864614 0.428913,0.6149476 1.033525,0.6149476 0.397908,0 0.769977,-0.3100576 0.366901,-0.30489 0.428913,-0.7441383 0.02584,-0.1498611 0.113688,-0.1498611 0.09302,0 0.09302,0.093017 0,0.5064275 -0.470254,0.9508434 -0.465087,0.4444159 -1.250566,0.4444159 -0.857826,0 -1.441768,-0.651121 -0.583942,-0.651121 -0.583942,-1.508947 z"
         style="font-style:normal;font-variant:normal;font-weight:normal;font-stretch:normal;font-family:'Bell MT';-inkscape-font-specification:'Bell MT';stroke-width:0.264583"
         id="path2021" />
      <path
         d="m 19.235669,7.0058542 q 0,-0.9095023 0.656289,-1.6019643 0.656288,-0.692462 1.612299,-0.692462 0.899167,0 1.545121,0.6201152 0.65112,0.6201152 0.65112,1.550288 0,0.9405081 -0.682126,1.6536406 -0.682127,0.7079649 -1.591629,0.7079649 -0.899167,0 -1.545121,-0.651121 Q 19.235669,7.936027 19.235669,7.0058542 Z m 0.837155,-0.031006 q 0,0.8888318 0.408243,1.4779413 0.41341,0.5891094 1.018022,0.5891094 0.552937,0 0.971514,-0.552936 0.423746,-0.5529361 0.423746,-1.467606 0,-0.8164851 -0.408243,-1.4521032 -0.403075,-0.6407857 -1.049028,-0.6407857 -0.599445,0 -0.981849,0.5839418 -0.382405,0.5787742 -0.382405,1.4624384 z"
         style="font-style:normal;font-variant:normal;font-weight:normal;font-stretch:normal;font-family:'Bell MT';-inkscape-font-specification:'Bell MT';stroke-width:0.264583"
         id="path2023" />
      <path
         d="m 25.912243,2.0862735 q 0.0155,0.651121 0.02584,1.3022419 l -0.01034,3.2194315 0.02067,1.5606233 q 0,0.4444159 0.124023,0.6407857 0.12919,0.1963698 0.547768,0.2325432 0.165364,0.015503 0.165364,0.098185 0,0.08785 -0.134358,0.08785 -0.03617,0 -0.08785,-0.00517 -0.532265,-0.056844 -1.271236,-0.056844 -0.449583,0 -0.723468,0.041341 -0.05684,0.00517 -0.103352,0.00517 -0.155029,0 -0.155029,-0.093017 0,-0.08785 0.139526,-0.093017 0.470254,-0.00517 0.614948,-0.2687166 0.149861,-0.2687165 0.149861,-0.8939994 L 25.199111,4.918133 Q 25.193943,3.4970356 25.15777,3.2231514 25.126764,2.9440995 24.945897,2.758065 24.76503,2.5720304 24.43947,2.5203541 24.237932,2.4893484 24.237932,2.411834 q 0,-0.08785 0.165364,-0.098185 0.945676,-0.062012 1.421098,-0.2273756 z"
         style="font-style:normal;font-variant:normal;font-weight:normal;font-stretch:normal;font-family:'Bell MT';-inkscape-font-specification:'Bell MT';stroke-width:0.264583"
         id="path2025" />
      <path
         d="m 30.046345,8.5044659 q -0.253214,0.3669015 -0.604613,0.5529361 -0.351398,0.1808669 -0.795814,0.1808669 -0.52193,0 -0.821653,-0.2790518 -0.294555,-0.2790519 -0.294555,-0.733803 0,-0.3410634 0.1757,-0.6356181 0.180867,-0.2945547 0.408242,-0.4237454 0.232544,-0.1291907 0.811318,-0.3255605 0.82682,-0.2738842 0.992184,-0.4547511 0.165364,-0.180867 0.165364,-0.4702541 0,-0.4599188 -0.21704,-0.7131325 -0.217041,-0.2583813 -0.614948,-0.2583813 -0.32556,0 -0.490924,0.1446935 -0.165364,0.1498612 -0.253214,0.5839419 -0.09302,0.4754216 -0.408243,0.4754216 -0.113687,0 -0.253213,-0.1136878 -0.134359,-0.1136878 -0.134359,-0.3358957 0,-0.387572 0.428913,-0.6717915 0.428913,-0.2893871 1.178219,-0.2893871 0.594277,0 0.945676,0.1705317 0.356566,0.1653641 0.444416,0.3824044 0.09302,0.2170403 0.09302,0.8371555 l -0.03101,1.3642535 q 0,0.7906469 0.09302,1.1265426 0.09819,0.3307281 0.356566,0.3307281 0.05168,0 0.144694,-0.015503 l 0.08785,-0.010335 q 0.118856,0 0.118856,0.08785 0,0.2015374 -1.018023,0.2015374 -0.294555,0 -0.397907,-0.1343583 -0.09819,-0.1395259 -0.10852,-0.5736066 z m 0,-2.0153744 q -0.155029,0.2015374 -0.702798,0.4909245 -0.5426,0.2790519 -0.780311,0.5322656 -0.237711,0.2583813 -0.237711,0.6201152 0,0.3255605 0.191202,0.5529361 0.19637,0.2273756 0.485757,0.2273756 0.299722,0 0.563271,-0.180867 0.263549,-0.1860345 0.387572,-0.470254 0.129191,-0.2842195 0.129191,-0.8423232 0,-0.4185778 -0.03617,-0.9301728 z"
         style="font-style:normal;font-variant:normal;font-weight:normal;font-stretch:normal;font-family:'Bell MT';-inkscape-font-specification:'Bell MT';stroke-width:0.264583"
         id="path2027" />
      <path
         d="m 33.270944,4.8251157 q 0.02584,0.3358957 0.04651,1.9430276 0.01033,1.0025196 0.05168,1.3384154 0.04134,0.3307281 0.258381,0.5477684 0.222208,0.2170403 0.506428,0.2170403 0.372069,0 0.744138,-0.346231 0.377237,-0.3462309 0.465086,-0.7389706 0.08785,-0.3979072 0.08785,-1.8190046 0,-0.6614562 -0.08268,-0.8009822 Q 35.265648,5.0266531 34.945255,5.0059826 34.8264,5.000815 34.8264,4.918133 q 0,-0.056844 0.03617,-0.072347 0.03617,-0.020671 0.232543,-0.020671 h 1.033526 q 0.04651,0.5632713 0.04651,1.2609009 l -0.04134,1.9430277 q 0,0.5994447 0.09819,0.7544735 0.103353,0.1550288 0.320393,0.1756993 0.134358,0.02067 0.134358,0.1033525 0,0.093017 -0.263549,0.093017 h -0.816485 q -0.211872,0 -0.211872,-0.1395259 0,-0.041341 0.0052,-0.093017 0.0155,-0.1550288 0.0155,-0.3152252 0,-0.1343583 -0.0155,-0.3927397 -0.392739,0.5064275 -0.816485,0.7596412 -0.423745,0.2532137 -0.883664,0.2532137 -0.39274,0 -0.661456,-0.1912022 -0.263549,-0.1912022 -0.351399,-0.4599188 -0.08268,-0.2738842 -0.113688,-1.3539182 -0.03101,-1.080034 -0.03101,-1.6949816 0,-0.3358957 -0.03617,-0.4185778 -0.03617,-0.082682 -0.227375,-0.093017 -0.206705,-0.015503 -0.206705,-0.1033526 0,-0.08785 0.248046,-0.08785 z"
         style="font-style:normal;font-variant:normal;font-weight:normal;font-stretch:normal;font-family:'Bell MT';-inkscape-font-specification:'Bell MT';stroke-width:0.264583"
         id="path2029" />
      <path
         d="m 40.748499,7.7965011 q 0,0.5994447 -0.444416,1.0335253 -0.444416,0.428913 -1.054195,0.428913 -0.361734,0 -0.862994,-0.2325432 -0.273884,-0.124023 -0.325561,-0.124023 -0.08785,0 -0.155028,0.1085202 -0.08268,0.1446935 -0.155029,0.1446935 -0.06201,0 -0.07751,-0.1446935 -0.0155,-0.1498612 -0.02067,-0.6717915 -0.0052,-0.4495835 -0.0155,-0.5787742 0,-0.1912022 0.09819,-0.1912022 0.05684,0 0.08785,0.098185 0.201537,0.5891095 0.563271,1.0025196 0.366901,0.4082425 0.857826,0.4082425 0.346231,0 0.614947,-0.2118727 0.268717,-0.2170403 0.268717,-0.5839418 0,-0.568439 -0.987017,-1.0076872 -0.676959,-0.30489 -0.904334,-0.4444159 -0.227376,-0.139526 -0.356567,-0.3772368 -0.12919,-0.2377108 -0.12919,-0.5167627 0,-0.5322655 0.403075,-0.8888318 0.403075,-0.3617338 0.976681,-0.3617338 0.423745,0 0.930173,0.2635489 0.08268,0.041341 0.144693,0.041341 0.05168,0 0.113688,-0.082682 0.06201,-0.077514 0.09819,-0.077514 0.04651,0 0.07235,0.041341 0.02584,0.036173 0.05684,0.4547512 0.03101,0.4134101 0.03101,0.6821267 0,0.1653641 -0.08785,0.1653641 -0.07751,0 -0.124023,-0.1498612 -0.04134,-0.1395259 -0.248046,-0.5322656 -0.206705,-0.3927396 -0.454751,-0.5012598 -0.242879,-0.1085201 -0.48059,-0.1085201 -0.372069,0 -0.60978,0.1808669 -0.23771,0.1808669 -0.23771,0.470254 0,0.180867 0.09818,0.3255605 0.09819,0.1446936 0.180867,0.2170404 0.08785,0.072347 0.987017,0.4754216 0.558104,0.2532137 0.733803,0.3927397 0.175699,0.1343582 0.294555,0.3669015 0.118855,0.2325432 0.118855,0.4857569 z"
         style="font-style:normal;font-variant:normal;font-weight:normal;font-stretch:normal;font-family:'Bell MT';-inkscape-font-specification:'Bell MT';stroke-width:0.264583"
         id="path2031" />
      <path
         d="m 48.014181,2.7684002 q 0.139526,-0.1395259 0.186035,-0.2893871 0.04134,-0.124023 0.118855,-0.124023 0.04134,0 0.09302,0.051676 0.03617,0.1860346 0.103352,0.7493059 l 0.124023,0.9715139 q 0,0.093017 -0.113688,0.093017 -0.06201,0 -0.10852,-0.1033525 -0.273884,-0.6769591 -0.811317,-1.1265426 -0.537433,-0.4444159 -1.173051,-0.4444159 -0.625283,0 -0.945676,0.3772367 -0.315225,0.3772368 -0.315225,0.8009822 0,0.5167626 0.346231,0.7906469 0.346231,0.2738842 1.426265,0.6201152 0.795814,0.2480461 1.188554,0.4805893 0.397907,0.2325432 0.666624,0.6511209 0.268716,0.4185778 0.268716,0.8991671 0,0.816485 -0.676959,1.4624384 -0.676959,0.6459533 -1.658808,0.6459533 -0.883664,0 -1.777664,-0.552936 -0.175699,0.1446935 -0.227375,0.3410633 -0.04134,0.1653641 -0.134359,0.1653641 -0.08268,0 -0.118855,-0.2118727 -0.03617,-0.2118727 -0.149861,-2.0050392 0.02067,-0.062011 0.10852,-0.062011 0.07751,0 0.124023,0.1136878 0.795815,1.9998715 2.22208,1.9998715 0.707964,0 1.105872,-0.4237454 0.403075,-0.428913 0.403075,-0.9818491 0,-0.3824043 -0.217041,-0.7027972 Q 47.859153,6.633785 47.502586,6.4374152 47.151188,6.2410454 46.386379,5.998167 45.40453,5.6829417 45.047964,5.4038899 44.696565,5.1196704 44.531201,4.7682718 44.365837,4.4117055 44.365837,4.0809774 q 0,-0.6872943 0.620115,-1.2195599 0.625283,-0.5322656 1.529618,-0.5322656 0.341063,0 0.713132,0.1085202 0.377237,0.1085202 0.785479,0.3307281 z"
         style="font-style:normal;font-variant:normal;font-weight:normal;font-stretch:normal;font-family:'Bell MT';-inkscape-font-specification:'Bell MT';stroke-width:0.264583"
         id="path2033" />
      <path
         d="m 50.644504,6.7526405 q -0.02067,0.2635489 -0.02067,0.4185777 0,0.733803 0.428913,1.2402305 0.434081,0.5064274 1.069699,0.5064274 0.620115,0 1.15238,-0.4960922 0.155029,-0.1395259 0.19637,-0.1395259 0.08268,0 0.08785,0.1343583 -0.19637,0.3617339 -0.671792,0.6097799 -0.475421,0.2480461 -1.059363,0.2480461 -0.857826,0 -1.452103,-0.6149476 -0.594277,-0.6201152 -0.594277,-1.5657909 0,-1.0128548 0.651121,-1.6898139 0.656288,-0.6769591 1.400427,-0.6769591 0.697629,0 1.260901,0.5322655 0.563271,0.527098 0.563271,1.2402304 0,0.1085202 -0.03617,0.1601965 -0.03101,0.051676 -0.392739,0.051676 z m 0,-0.2687166 q 0.671792,0.031006 1.302242,0.031006 l 0.273885,-0.015503 q 0.310057,-0.010335 0.475421,-0.1188554 0.165364,-0.1136878 0.165364,-0.3927396 0,-0.4340807 -0.299722,-0.7544735 -0.294555,-0.3255605 -0.69763,-0.3255605 -0.372069,0 -0.744138,0.3720691 -0.366901,0.3669015 -0.475422,1.2040571 z"
         style="font-style:normal;font-variant:normal;font-weight:normal;font-stretch:normal;font-family:'Bell MT';-inkscape-font-specification:'Bell MT';stroke-width:0.264583"
         id="path2035" />
      <path
         d="m 58.153067,5.4607338 q 0.232543,0.3720691 0.232543,0.816485 0,0.6666239 -0.439248,1.1368779 -0.444416,0.470254 -1.271236,0.5322655 -0.532266,0.041341 -0.728636,0.093017 -0.191202,0.046509 -0.351398,0.1963698 -0.160197,0.1446936 -0.160197,0.2893871 0,0.2170404 0.248046,0.3203929 0.242879,0.1033525 1.028358,0.1291907 1.152381,0.041341 1.539953,0.1033525 0.387572,0.056844 0.661456,0.3565663 0.279052,0.3048899 0.279052,0.7803112 0,0.78548 -0.692462,1.276404 -0.692462,0.490925 -2.04638,0.490925 -1.00252,0 -1.508947,-0.258382 -0.50126,-0.258381 -0.50126,-0.769976 0,-0.80615 1.529617,-1.3125772 Q 55.326375,9.5379913 55.062826,9.3571244 54.799277,9.181425 54.799277,8.8610322 q 0,-0.3307281 0.273884,-0.5787742 Q 55.352213,8.0290443 55.905149,7.8585126 55.409057,7.713819 55.104167,7.3520852 54.804445,6.9851837 54.804445,6.4942591 q 0,-0.7079648 0.537433,-1.2350628 0.537433,-0.5322655 1.364253,-0.5322655 0.80615,0 1.312578,0.552936 0.532265,-0.6046123 0.997352,-0.6046123 0.32556,0 0.501259,0.1860346 0.180867,0.1860345 0.180867,0.4082425 0,0.1395259 -0.103352,0.2325432 -0.103353,0.093017 -0.248046,0.093017 -0.263549,0 -0.418578,-0.3100576 -0.09302,-0.1860346 -0.222208,-0.1860346 -0.211873,0 -0.552936,0.3617339 z m -2.52697,0.8681613 q 0,0.7648087 0.330729,1.0903692 0.335895,0.3203929 0.707964,0.3203929 0.346231,0 0.620116,-0.3307281 0.279051,-0.3307282 0.279051,-1.0128549 0,-0.7027972 -0.273884,-1.0852016 -0.273884,-0.387572 -0.671791,-0.387572 -0.439249,0 -0.7183,0.3720691 -0.273885,0.3720691 -0.273885,1.0335254 z m 1.374589,3.3279516 q -0.537433,0 -0.997352,0.1756993 -0.459919,0.175699 -0.682127,0.418578 -0.21704,0.248046 -0.21704,0.589109 0,0.454751 0.439248,0.692462 0.439249,0.242879 1.100705,0.242879 1.002519,0 1.488276,-0.408243 0.485757,-0.403075 0.485757,-0.883664 0,-0.41341 -0.403075,-0.6201152 -0.403074,-0.2067051 -1.214392,-0.2067051 z"
         style="font-style:normal;font-variant:normal;font-weight:normal;font-stretch:normal;font-family:'Bell MT';-inkscape-font-specification:'Bell MT';stroke-width:0.264583"
         id="path2037" />
      <path
         d="m 61.62571,2.0862735 q 0.0155,0.651121 0.02584,1.3022419 l -0.01033,3.2194315 0.02067,1.5606233 q 0,0.4444159 0.124023,0.6407857 0.129191,0.1963698 0.547769,0.2325432 0.165364,0.015503 0.165364,0.098185 0,0.08785 -0.134358,0.08785 -0.03617,0 -0.08785,-0.00517 -0.532266,-0.056844 -1.271236,-0.056844 -0.449584,0 -0.723468,0.041341 -0.05684,0.00517 -0.103352,0.00517 -0.155029,0 -0.155029,-0.093017 0,-0.08785 0.139526,-0.093017 0.470254,-0.00517 0.614947,-0.2687166 Q 60.92808,8.4889631 60.92808,7.8636802 L 60.912578,4.918133 Q 60.90741,3.4970356 60.871236,3.2231514 60.840231,2.9440995 60.659364,2.758065 60.478497,2.5720304 60.152936,2.5203541 59.951399,2.4893484 59.951399,2.411834 q 0,-0.08785 0.165364,-0.098185 0.945676,-0.062012 1.421097,-0.2273756 z"
         style="font-style:normal;font-variant:normal;font-weight:normal;font-stretch:normal;font-family:'Bell MT';-inkscape-font-specification:'Bell MT';stroke-width:0.264583"
         id="path2039" />
      <path
         d="m 63.976982,6.7526405 q -0.02067,0.2635489 -0.02067,0.4185777 0,0.733803 0.428913,1.2402305 0.43408,0.5064274 1.069698,0.5064274 0.620116,0 1.152381,-0.4960922 0.155029,-0.1395259 0.19637,-0.1395259 0.08268,0 0.08785,0.1343583 -0.19637,0.3617339 -0.671792,0.6097799 -0.475422,0.2480461 -1.059363,0.2480461 -0.857826,0 -1.452104,-0.6149476 -0.594277,-0.6201152 -0.594277,-1.5657909 0,-1.0128548 0.651121,-1.6898139 0.656289,-0.6769591 1.400427,-0.6769591 0.69763,0 1.260901,0.5322655 0.563271,0.527098 0.563271,1.2402304 0,0.1085202 -0.03617,0.1601965 -0.03101,0.051676 -0.39274,0.051676 z m 0,-0.2687166 q 0.671792,0.031006 1.302242,0.031006 l 0.273884,-0.015503 q 0.310058,-0.010335 0.475422,-0.1188554 0.165364,-0.1136878 0.165364,-0.3927396 0,-0.4340807 -0.299722,-0.7544735 -0.294555,-0.3255605 -0.69763,-0.3255605 -0.372069,0 -0.744138,0.3720691 -0.366902,0.3669015 -0.475422,1.2040571 z"
         style="font-style:normal;font-variant:normal;font-weight:normal;font-stretch:normal;font-family:'Bell MT';-inkscape-font-specification:'Bell MT';stroke-width:0.264583"
         id="path2041" />
      <path
         d="m 69.082595,5.899982 q 0.325561,-0.5787742 0.692462,-0.8681613 0.372069,-0.2893871 0.780312,-0.2893871 0.284219,0 0.490924,0.2067051 0.206705,0.2015375 0.206705,0.4599188 0,0.4909245 -0.418577,0.4909245 -0.19637,0 -0.330728,-0.2738842 -0.165365,-0.346231 -0.439249,-0.346231 -0.258381,0 -0.532265,0.2893871 -0.273885,0.2893871 -0.366902,0.6356181 -0.09302,0.3410634 -0.09302,1.4366003 0,1.0025196 0.08268,1.1523807 0.08268,0.1446936 0.423745,0.1860346 0.09302,0.010335 0.09302,0.072347 0,0.1085201 -0.242879,0.1085201 h -1.648473 q -0.175699,0 -0.175699,-0.08785 0,-0.082682 0.232543,-0.093017 0.325561,-0.02067 0.403075,-0.2015374 0.07751,-0.180867 0.07751,-1.3332478 0,-1.6898139 -0.07235,-2.0308773 -0.06718,-0.3410633 -0.516763,-0.3617338 -0.186035,-0.010335 -0.186035,-0.098185 0,-0.046509 0.03617,-0.067179 0.04134,-0.025838 0.475421,-0.051676 l 0.950844,-0.051676 q 0.03617,0.2790518 0.07751,1.1162073 z"
         style="font-style:normal;font-variant:normal;font-weight:normal;font-stretch:normal;font-family:'Bell MT';-inkscape-font-specification:'Bell MT';stroke-width:0.264583"
         id="path2043" />
    </g>
    <circle
       id="path1997"
       style="fill:#008000;stroke:#000000;stroke-width:0.264583"
       cx="1.8898809"
       cy="19.087799"
       r="0.012488274" />
  </g>
</svg>
